# xmcd CD database file
#
# Track frame offsets:
#	150
#	2169
#	15740
#	17606
#	29820
#	33772
#	46543
#	48383
#	62837
#	66264
#	81384
#	83979
#	95125
#	96261
#	107698
#	108796
#	120002
#	122584
#	148215
#	149569
#	165655
#	198615
#	203745
#	225950
#	271114
#
# Disc length: 4049 seconds
#
# Revision: 1
# Processed by: cddbd v1.5.2PL0 Copyright (c) Steve Scherf et al.
# Submitted via: CDex 1.51
#
DISCID=500fcf19
DTITLE=David Barrett, Joe Filisko, Dennis Gruenling, Kinya Pollard - History of the Blues Harmonica Concert Disk 2 of 2
DYEAR=2010
DGENRE=Blues
TTITLE0=Roller Coaster Intro - Barrett
TTITLE1=Roller Coaster - Barrett
TTITLE2=Just Whaling Intro - Barrett
TTITLE3=Just Whaling - Barrett
TTITLE4=Easy Intro - Barrett
TTITLE5=Easy - Barrett
TTITLE6=Walter's Boogie Intro - Barrett
TTITLE7=Walter's Boogie - Barrett
TTITLE8=Sharp Harp Intro - Barrett
TTITLE9=Sharp Harp - Barrett
TTITLE10=Steady Intro - Barrett
TTITLE11=Steady - Barrett
TTITLE12=Chitlin Con Carne Intro - Barrett
TTITLE13=Chitlin Con Carne - Barrett
TTITLE14=Juicy Harmonica Intro - Barrett
TTITLE15=Juicy Harmonica - Barrett
TTITLE16=Matchstick Intro - Barrett
TTITLE17=Matchstick - Barrett
TTITLE18=Intro - Pollard
TTITLE19=Tribute to Paul Butterfield Intro - Pollard
TTITLE20=Tribute to Paul Butterfield - Pollard
TTITLE21=Intro - Gruenling
TTITLE22=Fyling Home - Gruenling
TTITLE23=Bluesmtih - Gruenling
TTITLE24=House Party - Gruenling
EXTD=YEAR: 2010
EXTT0=
EXTT1=
EXTT2=
EXTT3=
EXTT4=
EXTT5=
EXTT6=
EXTT7=
EXTT8=
EXTT9=
EXTT10=
EXTT11=
EXTT12=
EXTT13=
EXTT14=
EXTT15=
EXTT16=
EXTT17=
EXTT18=
EXTT19=
EXTT20=
EXTT21=
EXTT22=
EXTT23=
EXTT24=
PLAYORDER=
